<svg width="40" height="40" viewBox="0 0 40 40" fill="none" xmlns="http://www.w3.org/2000/svg">
<path d="M10.3002 37.9169C10.1336 37.9169 9.95023 37.9002 9.80023 37.8835L6.18356 37.3835C4.45023 37.1502 2.88356 35.6002 2.61689 33.8335L2.11689 30.1835C1.95023 29.0169 2.45023 27.5002 3.28356 26.6502L10.6002 19.3335C9.41689 14.6002 10.7836 9.6002 14.2669 6.1502C19.6669 0.766864 28.4502 0.750198 33.8669 6.1502C36.4836 8.76686 37.9169 12.2502 37.9169 15.9502C37.9169 19.6502 36.4836 23.1335 33.8669 25.7502C30.3669 29.2169 25.3836 30.5835 20.6836 29.3835L13.3502 36.7002C12.6502 37.4335 11.4002 37.9169 10.3002 37.9169ZM24.0502 4.6002C21.1336 4.6002 18.2336 5.7002 16.0169 7.91686C13.0169 10.9002 11.9336 15.2669 13.1836 19.3335C13.3169 19.7835 13.2002 20.2502 12.8669 20.5835L5.03356 28.4169C4.75023 28.7002 4.51689 29.4335 4.56689 29.8169L5.06689 33.4669C5.16689 34.1002 5.85023 34.8169 6.48356 34.9002L10.1169 35.4002C10.5169 35.4669 11.2502 35.2335 11.5336 34.9502L19.4002 27.1002C19.7336 26.7669 20.2169 26.6669 20.6502 26.8002C24.6669 28.0669 29.0502 26.9835 32.0502 23.9835C34.1836 21.8502 35.3669 18.9835 35.3669 15.9502C35.3669 12.9002 34.1836 10.0502 32.0502 7.91686C29.8836 5.71686 26.9669 4.6002 24.0502 4.6002Z" fill="#7A8699"/>
<path d="M15.3165 34.234C14.9998 34.234 14.6831 34.1173 14.4331 33.8673L10.5998 30.034C10.1165 29.5506 10.1165 28.7506 10.5998 28.2673C11.0831 27.784 11.8831 27.784 12.3665 28.2673L16.1998 32.1006C16.6831 32.584 16.6831 33.384 16.1998 33.8673C15.9498 34.1173 15.6331 34.234 15.3165 34.234Z" fill="#7A8699"/>
<path d="M24.1665 19.5835C22.0998 19.5835 20.4165 17.9002 20.4165 15.8335C20.4165 13.7668 22.0998 12.0835 24.1665 12.0835C26.2332 12.0835 27.9165 13.7668 27.9165 15.8335C27.9165 17.9002 26.2332 19.5835 24.1665 19.5835ZM24.1665 14.5835C23.4832 14.5835 22.9165 15.1502 22.9165 15.8335C22.9165 16.5168 23.4832 17.0835 24.1665 17.0835C24.8498 17.0835 25.4165 16.5168 25.4165 15.8335C25.4165 15.1502 24.8498 14.5835 24.1665 14.5835Z" fill="#7A8699"/>
</svg>
