<svg width="25" height="24" viewBox="0 0 25 24" fill="none" xmlns="http://www.w3.org/2000/svg">
<path d="M12.7949 22.75C6.87492 22.75 2.04492 17.93 2.04492 12C2.04492 6.07 6.87492 1.25 12.7949 1.25C18.7149 1.25 23.5449 6.07 23.5449 12C23.5449 17.93 18.7249 22.75 12.7949 22.75ZM12.7949 2.75C7.69492 2.75 3.54492 6.9 3.54492 12C3.54492 17.1 7.69492 21.25 12.7949 21.25C17.8949 21.25 22.0449 17.1 22.0449 12C22.0449 6.9 17.8949 2.75 12.7949 2.75Z" fill="#021E2F"/>
<path d="M16.7949 12.75H8.79492C8.38492 12.75 8.04492 12.41 8.04492 12C8.04492 11.59 8.38492 11.25 8.79492 11.25H16.7949C17.2049 11.25 17.5449 11.59 17.5449 12C17.5449 12.41 17.2149 12.75 16.7949 12.75Z" fill="#021E2F"/>
</svg>
