<svg width="40" height="40" viewBox="0 0 40 40" fill="none" xmlns="http://www.w3.org/2000/svg">
<path d="M40.0001 19.9999C40.0001 23.9556 38.8271 27.8225 36.6295 31.1115C34.4318 34.4005 31.3082 36.9639 27.6537 38.4776C23.9992 39.9914 19.9778 40.3874 16.0982 39.6157C12.2186 38.844 8.65491 36.9393 5.85785 34.1422C3.0608 31.3451 1.15601 27.7815 0.384307 23.9019C-0.387399 20.0222 0.00865768 16.0009 1.52241 12.3464C3.03617 8.69183 5.59966 5.56822 8.88865 3.37059C12.1776 1.17296 16.0444 0 20 0C25.3044 0 30.3914 2.10708 34.1422 5.85782C37.8929 9.60855 40.0001 14.6956 40.0001 19.9999Z" fill="#021E2F"/>
<path fill-rule="evenodd" clip-rule="evenodd" d="M20.6747 13.2915C20.3185 13.2915 20.0297 13.0028 20.0297 12.6465C20.0297 12.2903 20.3185 12.0015 20.6747 12.0015C22.5489 12.0015 24.4231 12.7165 25.8531 14.1465C26.5517 14.8451 27.0808 15.6545 27.44 16.5217C27.8082 17.4104 27.9979 18.3629 27.9981 19.3249C27.9981 19.6812 27.7094 19.9699 27.3531 19.9699C26.9969 19.9699 26.7081 19.6812 26.7081 19.3249C26.7081 18.5343 26.5556 17.7466 26.2507 17.0105C25.9582 16.3041 25.5217 15.6393 24.941 15.0587C23.763 13.8806 22.2189 13.2915 20.6747 13.2915ZM18.5751 21.4245C17.8648 20.7154 17.2352 19.9306 16.7 19.0843C16.5046 18.7753 16.5066 18.404 16.7053 18.0971L17.469 16.918C17.632 16.6663 17.6631 16.3791 17.5577 16.0985L16.2441 12.5972C16.0383 12.0489 15.3873 11.832 14.8937 12.1473L13.061 13.3182C12.2246 13.8527 11.8363 14.8133 12.0667 15.7788C12.7758 18.7503 14.3225 21.4245 16.4602 23.5394C18.5751 25.6771 21.2493 27.2238 24.2209 27.9329C25.1863 28.1633 26.147 27.775 26.6814 26.9386L27.8523 25.1059C28.1677 24.6123 27.9507 23.9612 27.4024 23.7555L23.9012 22.4419C23.6205 22.3365 23.3334 22.3676 23.0817 22.5305L21.9025 23.2943C21.5957 23.493 21.2244 23.495 20.9153 23.2996C20.0691 22.7644 19.2842 22.1349 18.5751 21.4245ZM20.6747 18.5181C20.7838 18.5181 20.89 18.5381 20.9866 18.5781C21.0772 18.6157 21.1652 18.6743 21.2453 18.7544C21.3254 18.8344 21.384 18.9224 21.4215 19.0131C21.4615 19.1096 21.4815 19.2158 21.4815 19.3249C21.4815 19.6812 21.7703 19.9699 22.1266 19.9699C22.4828 19.9699 22.7716 19.6812 22.7716 19.3249C22.7716 19.0554 22.718 18.783 22.6108 18.5242C22.5067 18.2728 22.3554 18.0402 22.1574 17.8422C21.9594 17.6442 21.7268 17.4929 21.4754 17.3888C21.2166 17.2816 20.9442 17.228 20.6747 17.228C20.3185 17.228 20.0297 17.5168 20.0297 17.8731C20.0297 18.2293 20.3185 18.5181 20.6747 18.5181ZM20.6747 15.9023C21.1206 15.9023 21.5675 15.9894 21.9878 16.1635C22.3864 16.3286 22.7628 16.5761 23.0931 16.9065C23.4235 17.2369 23.6711 17.6133 23.8361 18.0118C24.0085 18.4281 24.0973 18.8743 24.0973 19.3249C24.0973 19.6797 24.385 19.9674 24.7398 19.9674C25.0947 19.9674 25.3824 19.6798 25.3824 19.3249C25.3824 18.7107 25.2634 18.0975 25.0254 17.523C24.7938 16.9637 24.4536 16.4427 24.0053 15.9944C23.557 15.5461 23.036 15.2059 22.4767 14.9743C21.9022 14.7363 21.2889 14.6173 20.6747 14.6173C20.3199 14.6173 20.0322 14.905 20.0322 15.2598C20.0322 15.6147 20.3199 15.9023 20.6747 15.9023Z" fill="white"/>
</svg>
