<svg width="40" height="40" viewBox="0 0 40 40" fill="none" xmlns="http://www.w3.org/2000/svg">
<path d="M40.0001 19.9999C40.0001 23.9556 38.8271 27.8225 36.6295 31.1115C34.4318 34.4005 31.3082 36.9639 27.6537 38.4776C23.9992 39.9914 19.9778 40.3874 16.0982 39.6157C12.2186 38.844 8.65491 36.9393 5.85785 34.1422C3.0608 31.3451 1.15601 27.7815 0.384307 23.9019C-0.387399 20.0222 0.00865768 16.0009 1.52241 12.3464C3.03617 8.69183 5.59966 5.56822 8.88865 3.37059C12.1776 1.17296 16.0444 0 20 0C25.3044 0 30.3914 2.10708 34.1422 5.85782C37.8929 9.60855 40.0001 14.6956 40.0001 19.9999Z" fill="#021E2F"/>
<path d="M12.3539 19.9045L16.0332 21.154L24.7693 15.8133C24.8961 15.7362 25.0258 15.9082 24.9167 16.0087L18.3031 22.0961L18.0574 25.504C18.0534 25.5611 18.0668 25.6181 18.0959 25.6674C18.125 25.7166 18.1684 25.7559 18.2204 25.7799C18.2723 25.804 18.3303 25.8117 18.3867 25.802C18.4431 25.7923 18.4952 25.7657 18.5362 25.7257L20.5724 23.7232L24.2951 26.541C24.3873 26.6109 24.4956 26.6565 24.6101 26.6735C24.7245 26.6905 24.8414 26.6785 24.95 26.6385C25.0586 26.5985 25.1554 26.5318 25.2314 26.4446C25.3075 26.3573 25.3603 26.2524 25.3852 26.1393L27.9772 14.3702C28.1252 13.6989 27.467 13.1321 26.8255 13.3778L12.3356 18.9264C11.8809 19.1007 11.8934 19.748 12.3539 19.9045Z" fill="white"/>
</svg>
