<svg width="40" height="40" viewBox="0 0 40 40" fill="none" xmlns="http://www.w3.org/2000/svg">
<path d="M40.0001 19.9999C40.0001 23.9556 38.8271 27.8225 36.6295 31.1115C34.4318 34.4005 31.3082 36.9639 27.6537 38.4776C23.9992 39.9914 19.9778 40.3874 16.0982 39.6157C12.2186 38.844 8.65491 36.9393 5.85785 34.1422C3.0608 31.3451 1.15601 27.7815 0.384307 23.9019C-0.387399 20.0222 0.00865768 16.0009 1.52241 12.3464C3.03617 8.69183 5.59966 5.56822 8.88865 3.37059C12.1776 1.17296 16.0444 0 20 0C25.3044 0 30.3914 2.10708 34.1422 5.85782C37.8929 9.60855 40.0001 14.6956 40.0001 19.9999Z" fill="#021E2F"/>
<path fill-rule="evenodd" clip-rule="evenodd" d="M27.9982 17.0965L20.4245 21.9652C20.2944 22.037 20.1483 22.0747 19.9997 22.0747C19.8511 22.0747 19.7049 22.037 19.5749 21.9652L12.0012 17.0965V24.1475C12.0012 24.6975 12.2197 25.225 12.6086 25.6139C12.9976 26.0028 13.525 26.2213 14.0751 26.2213H25.9243C26.4744 26.2213 27.0018 26.0028 27.3908 25.6139C27.7797 25.225 27.9982 24.6975 27.9982 24.1475V17.0965ZM12.1494 15.0842L19.9997 20.1728L27.85 15.0842C27.6969 14.6987 27.4314 14.368 27.088 14.1352C26.7446 13.9023 26.3392 13.778 25.9243 13.7783H14.0751C13.6602 13.778 13.2548 13.9023 12.9114 14.1352C12.568 14.368 12.3025 14.6987 12.1494 15.0842Z" fill="white"/>
</svg>
