<svg width="22" height="22" viewBox="0 0 22 22" fill="none" xmlns="http://www.w3.org/2000/svg">
<path d="M15.583 20.8541H6.41634C2.37384 20.8541 1.14551 19.6258 1.14551 15.5833V13.75C1.14551 9.70746 2.37384 8.47913 6.41634 8.47913H15.583C19.6255 8.47913 20.8538 9.70746 20.8538 13.75V15.5833C20.8538 19.6258 19.6255 20.8541 15.583 20.8541ZM6.41634 9.85413C3.13467 9.85413 2.52051 10.4775 2.52051 13.75V15.5833C2.52051 18.8558 3.13467 19.4791 6.41634 19.4791H15.583C18.8647 19.4791 19.4788 18.8558 19.4788 15.5833V13.75C19.4788 10.4775 18.8647 9.85413 15.583 9.85413H6.41634Z" fill="#7A8699"/>
<path d="M5.5 9.85421C5.12417 9.85421 4.8125 9.54254 4.8125 9.16671V7.33337C4.8125 4.67504 5.45417 1.14587 11 1.14587C15.1067 1.14587 17.1875 2.91504 17.1875 6.41671C17.1875 6.79254 16.8758 7.10421 16.5 7.10421C16.1242 7.10421 15.8125 6.79254 15.8125 6.41671C15.8125 4.60171 15.2625 2.52087 11 2.52087C7.00333 2.52087 6.1875 4.44587 6.1875 7.33337V9.16671C6.1875 9.54254 5.87583 9.85421 5.5 9.85421Z" fill="#7A8699"/>
<path d="M10.9997 17.6458C9.35884 17.6458 8.02051 16.3075 8.02051 14.6667C8.02051 13.0258 9.35884 11.6875 10.9997 11.6875C12.6405 11.6875 13.9788 13.0258 13.9788 14.6667C13.9788 16.3075 12.6405 17.6458 10.9997 17.6458ZM10.9997 13.0625C10.1197 13.0625 9.39551 13.7867 9.39551 14.6667C9.39551 15.5467 10.1197 16.2708 10.9997 16.2708C11.8797 16.2708 12.6038 15.5467 12.6038 14.6667C12.6038 13.7867 11.8797 13.0625 10.9997 13.0625Z" fill="#7A8699"/>
</svg>
