<svg width="48" height="48" viewBox="0 0 48 48" fill="none" xmlns="http://www.w3.org/2000/svg">
<path d="M24.24 27.06C24.2 27.06 24.14 27.06 24.1 27.06C24.04 27.06 23.96 27.06 23.9 27.06C19.36 26.92 15.96 23.38 15.96 19.02C15.96 14.58 19.58 10.96 24.02 10.96C28.46 10.96 32.08 14.58 32.08 19.02C32.06 23.4 28.64 26.92 24.3 27.06C24.26 27.06 24.26 27.06 24.24 27.06ZM24 13.94C21.2 13.94 18.94 16.22 18.94 19C18.94 21.74 21.08 23.96 23.8 24.06C23.86 24.04 24.06 24.04 24.26 24.06C26.94 23.92 29.04 21.72 29.06 19C29.06 16.22 26.8 13.94 24 13.94Z" fill="#D4D4D4"/>
<path d="M23.9999 45.4996C18.6199 45.4996 13.4799 43.4996 9.49992 39.8596C9.13992 39.5396 8.97992 39.0596 9.01992 38.5996C9.27992 36.2196 10.7599 33.9996 13.2199 32.3596C19.1799 28.3996 28.8399 28.3996 34.7799 32.3596C37.2399 34.0196 38.7199 36.2196 38.9799 38.5996C39.0399 39.0796 38.8599 39.5396 38.4999 39.8596C34.5199 43.4996 29.3799 45.4996 23.9999 45.4996ZM12.1599 38.1996C15.4799 40.9796 19.6599 42.4996 23.9999 42.4996C28.3399 42.4996 32.5199 40.9796 35.8399 38.1996C35.4799 36.9796 34.5199 35.7996 33.0999 34.8396C28.1799 31.5596 19.8399 31.5596 14.8799 34.8396C13.4599 35.7996 12.5199 36.9796 12.1599 38.1996Z" fill="#D4D4D4"/>
<path d="M23.9999 45.4995C12.1399 45.4995 2.49988 35.8595 2.49988 23.9995C2.49988 12.1395 12.1399 2.49951 23.9999 2.49951C35.8599 2.49951 45.4999 12.1395 45.4999 23.9995C45.4999 35.8595 35.8599 45.4995 23.9999 45.4995ZM23.9999 5.49951C13.7999 5.49951 5.49988 13.7995 5.49988 23.9995C5.49988 34.1995 13.7999 42.4995 23.9999 42.4995C34.1999 42.4995 42.4999 34.1995 42.4999 23.9995C42.4999 13.7995 34.1999 5.49951 23.9999 5.49951Z" fill="#D4D4D4"/>
</svg>
