<svg width="25" height="24" viewBox="0 0 25 24" fill="none" xmlns="http://www.w3.org/2000/svg">
<path d="M12.36 22.7199H6.14C3.41 22.7199 1.5 20.8099 1.5 18.0799V10.3099C1.5 7.57992 3.41 5.66992 6.14 5.66992H9.97C11.19 5.66992 12.39 6.16992 13.25 7.02992L15.64 9.40992C16.51 10.2799 17 11.4699 17 12.6899V18.0799C17 20.8099 15.09 22.7199 12.36 22.7199ZM6.14 7.16992C4.23 7.16992 3 8.39992 3 10.3099V18.0799C3 19.9899 4.23 21.2199 6.14 21.2199H12.36C14.27 21.2199 15.5 19.9899 15.5 18.0799V12.6899C15.5 11.8599 15.16 11.0599 14.58 10.4699L12.19 8.08992C11.6 7.49992 10.79 7.16992 9.97 7.16992H6.14Z" fill="#021E2F"/>
<path d="M18.36 18.28H16.25C15.84 18.28 15.5 17.94 15.5 17.53V12.69C15.5 11.86 15.16 11.06 14.58 10.47L12.19 8.08997C11.6 7.49997 10.79 7.16997 9.97 7.16997H8.25C7.84 7.16997 7.5 6.82997 7.5 6.41997V5.85997C7.5 3.12997 9.41 1.21997 12.14 1.21997H15.97C17.19 1.21997 18.39 1.71997 19.25 2.57997L21.64 4.96997C22.52 5.84997 23 7.00997 23 8.24997V13.64C23 16.37 21.09 18.28 18.36 18.28ZM17 16.78H18.36C20.27 16.78 21.5 15.55 21.5 13.64V8.24997C21.5 7.40997 21.17 6.61997 20.58 6.02997L18.19 3.63997C17.61 3.05997 16.8 2.71997 15.97 2.71997H12.14C10.3 2.71997 9.08 3.86997 9 5.66997H9.97C11.19 5.66997 12.39 6.16997 13.25 7.02997L15.64 9.40997C16.51 10.28 17 11.47 17 12.69V16.78Z" fill="#021E2F"/>
</svg>
