<svg width="22" height="22" viewBox="0 0 22 22" fill="none" xmlns="http://www.w3.org/2000/svg">
<path d="M10.9998 17.6459C10.0648 17.6459 9.2031 17.2242 8.63476 16.4817C8.4056 16.1792 8.4606 15.7484 8.7631 15.5192C9.0656 15.29 9.49643 15.345 9.7256 15.6475C10.0281 16.0509 10.4956 16.2709 10.9998 16.2709C11.8798 16.2709 12.6039 15.5467 12.6039 14.6667C12.6039 14.3092 12.4939 13.97 12.2739 13.695C12.0448 13.3925 12.0998 12.9617 12.4023 12.7325C12.7048 12.5034 13.1356 12.5584 13.3648 12.8609C13.7681 13.3834 13.9789 14.0067 13.9789 14.6667C13.9789 16.3075 12.6406 17.6459 10.9998 17.6459Z" fill="#7A8699"/>
<path d="M15.5835 20.8541H6.41683C6.07766 20.8541 5.75683 20.845 5.45433 20.8266C5.0785 20.8083 4.78516 20.4783 4.8035 20.1025C4.82183 19.7266 5.14266 19.4516 5.52766 19.4516C5.80266 19.47 6.096 19.47 6.40766 19.47H15.5743C18.8468 19.47 19.4702 18.8466 19.4702 15.5741V13.7408C19.4702 10.5233 18.7918 10.0008 16.4543 9.86329C16.1793 9.84496 15.886 9.84496 15.5743 9.84496H6.41683C3.14433 9.84496 2.521 10.4683 2.521 13.7408V15.5741C2.521 17.1691 2.70433 18.1133 3.126 18.6266C3.36433 18.92 3.3185 19.36 3.016 19.5891C2.72266 19.8275 2.29183 19.7816 2.0535 19.4791C1.41183 18.7 1.146 17.5633 1.146 15.5833V13.75C1.146 9.70746 2.37433 8.47913 6.41683 8.47913H15.5835C15.9227 8.47913 16.2435 8.48829 16.5368 8.50663C20.1668 8.70829 20.8543 10.505 20.8543 13.75V15.5833C20.8543 19.6258 19.626 20.8541 15.5835 20.8541Z" fill="#7A8699"/>
<path d="M5.5 9.85421C5.12417 9.85421 4.8125 9.54254 4.8125 9.16671V7.33337C4.8125 4.67504 5.45417 1.14587 11 1.14587C14.7308 1.14587 16.665 2.36504 17.0867 4.98671C17.1508 5.36254 16.8942 5.71087 16.5183 5.77504C16.1425 5.83921 15.7942 5.58254 15.73 5.20671C15.5008 3.81337 14.7767 2.52087 11 2.52087C7.00333 2.52087 6.1875 4.44587 6.1875 7.33337V9.16671C6.1875 9.54254 5.87583 9.85421 5.5 9.85421Z" fill="#7A8699"/>
<path d="M1.83316 20.8541C1.65899 20.8541 1.48482 20.7899 1.34732 20.6524C1.08149 20.3866 1.08149 19.9466 1.34732 19.6808L19.6807 1.34745C19.9465 1.08161 20.3865 1.08161 20.6523 1.34745C20.9182 1.61328 20.9182 2.05328 20.6523 2.31911L2.31899 20.6524C2.18149 20.7899 2.00732 20.8541 1.83316 20.8541Z" fill="#7A8699"/>
</svg>
