<svg width="40" height="40" viewBox="0 0 40 40" fill="none" xmlns="http://www.w3.org/2000/svg">
<path d="M26.6666 37.9168H13.3333C8.29996 37.9168 5.41663 35.0335 5.41663 30.0002V13.7502C5.41663 8.50016 8.08329 5.8335 13.3333 5.8335C14.0166 5.8335 14.5833 6.40016 14.5833 7.0835C14.5833 7.75016 14.85 8.38349 15.3166 8.85016C15.7833 9.31683 16.4166 9.5835 17.0833 9.5835H22.9166C24.3 9.5835 25.4166 8.46683 25.4166 7.0835C25.4166 6.40016 25.9833 5.8335 26.6666 5.8335C31.9166 5.8335 34.5833 8.50016 34.5833 13.7502V30.0002C34.5833 35.0335 31.7 37.9168 26.6666 37.9168ZM12.2499 8.36684C9.61659 8.5835 7.91663 9.76683 7.91663 13.7502V30.0002C7.91663 33.7002 9.63329 35.4168 13.3333 35.4168H26.6666C30.3666 35.4168 32.0833 33.7002 32.0833 30.0002V13.7502C32.0833 9.76683 30.3833 8.60017 27.75 8.36684C27.1833 10.5002 25.2333 12.0835 22.9166 12.0835H17.0833C15.75 12.0835 14.5 11.5668 13.55 10.6168C12.9166 9.98349 12.4833 9.21684 12.2499 8.36684Z" fill="#7A8699"/>
<path d="M22.9167 12.0835H17.0834C15.75 12.0835 14.5 11.5668 13.55 10.6168C12.6 9.66682 12.0834 8.41683 12.0834 7.0835C12.0834 4.3335 14.3334 2.0835 17.0834 2.0835H22.9167C24.25 2.0835 25.5 2.60017 26.45 3.55017C27.4 4.50017 27.9167 5.75016 27.9167 7.0835C27.9167 9.8335 25.6667 12.0835 22.9167 12.0835ZM17.0834 4.5835C15.7 4.5835 14.5834 5.70016 14.5834 7.0835C14.5834 7.75016 14.85 8.38349 15.3167 8.85016C15.7834 9.31683 16.4167 9.5835 17.0834 9.5835H22.9167C24.3 9.5835 25.4167 8.46683 25.4167 7.0835C25.4167 6.41683 25.15 5.7835 24.6834 5.31683C24.2167 4.85017 23.5834 4.5835 22.9167 4.5835H17.0834Z" fill="#7A8699"/>
<path d="M20 22.9165H13.3334C12.65 22.9165 12.0834 22.3498 12.0834 21.6665C12.0834 20.9832 12.65 20.4165 13.3334 20.4165H20C20.6834 20.4165 21.25 20.9832 21.25 21.6665C21.25 22.3498 20.6834 22.9165 20 22.9165Z" fill="#7A8699"/>
<path d="M26.6667 29.5835H13.3334C12.65 29.5835 12.0834 29.0168 12.0834 28.3335C12.0834 27.6502 12.65 27.0835 13.3334 27.0835H26.6667C27.35 27.0835 27.9167 27.6502 27.9167 28.3335C27.9167 29.0168 27.35 29.5835 26.6667 29.5835Z" fill="#7A8699"/>
</svg>
