<svg width="40" height="40" viewBox="0 0 40 40" fill="none" xmlns="http://www.w3.org/2000/svg">
<path d="M21.6667 16.25H11.6667C10.9833 16.25 10.4167 15.6833 10.4167 15C10.4167 14.3167 10.9833 13.75 11.6667 13.75H21.6667C22.35 13.75 22.9167 14.3167 22.9167 15C22.9167 15.6833 22.35 16.25 21.6667 16.25Z" fill="#7A8699"/>
<path d="M31.7331 24.6668C29.2165 24.6668 27.0832 22.8001 26.8832 20.4001C26.7498 19.0168 27.2499 17.6668 28.2499 16.6835C29.0832 15.8168 30.2665 15.3335 31.5165 15.3335H34.9998C36.6498 15.3835 37.9165 16.6834 37.9165 18.2834V21.7169C37.9165 23.3169 36.6499 24.6168 35.0499 24.6668H31.7331ZM34.9498 17.8335H31.5331C30.9498 17.8335 30.4165 18.0502 30.0332 18.4502C29.5499 18.9168 29.3165 19.5501 29.3832 20.1835C29.4665 21.2835 30.5331 22.1668 31.7331 22.1668H34.9998C35.2165 22.1668 35.4165 21.9669 35.4165 21.7169V18.2834C35.4165 18.0334 35.2165 17.8502 34.9498 17.8335Z" fill="#7A8699"/>
<path d="M26.6667 35.4168H11.6667C5.93334 35.4168 2.08334 31.5668 2.08334 25.8335V14.1668C2.08334 9.0335 5.24997 5.31684 10.1666 4.70017C10.6166 4.63351 11.1333 4.5835 11.6667 4.5835H26.6667C27.0667 4.5835 27.5833 4.60016 28.1167 4.68349C33.0333 5.25016 36.25 8.9835 36.25 14.1668V16.5835C36.25 17.2669 35.6833 17.8335 35 17.8335H31.5333C30.95 17.8335 30.4167 18.0502 30.0334 18.4502L30.0167 18.4669C29.55 18.9169 29.3334 19.5335 29.3834 20.1668C29.4667 21.2668 30.5333 22.1501 31.7333 22.1501H35C35.6833 22.1501 36.25 22.7168 36.25 23.4001V25.8168C36.25 31.5668 32.4 35.4168 26.6667 35.4168ZM11.6667 7.0835C11.2667 7.0835 10.8833 7.11681 10.5 7.16681C6.83332 7.63348 4.58334 10.3002 4.58334 14.1668V25.8335C4.58334 30.1335 7.36668 32.9168 11.6667 32.9168H26.6667C30.9667 32.9168 33.75 30.1335 33.75 25.8335V24.6668H31.7333C29.2166 24.6668 27.0834 22.8001 26.8834 20.4001C26.75 19.0335 27.25 17.6669 28.25 16.7002C29.1167 15.8169 30.2833 15.3335 31.5333 15.3335H33.75V14.1668C33.75 10.2668 31.4666 7.58346 27.7666 7.15013C27.3666 7.08346 27.0167 7.0835 26.6667 7.0835H11.6667Z" fill="#7A8699"/>
</svg>
