<svg width="430" height="32" viewBox="0 0 430 32" fill="none" xmlns="http://www.w3.org/2000/svg">
<path d="M411.399 22.8544V0.689087H401.847V31.3024H430V22.8544H411.399Z" fill="#021E2F"/>
<path d="M370.905 0.689087L357.177 31.3024H367.339L369.668 25.7931H384.772L387.091 31.3024H397.296L383.53 0.689087H370.905ZM372.875 18.1984L377.234 7.87309L381.576 18.1984H372.875Z" fill="#021E2F"/>
<path d="M355.752 0.689087H323.423V9.13708H334.811V31.3024H344.358V9.13708H355.752V0.689087Z" fill="#021E2F"/>
<path d="M316.592 0.689087H307.045V31.3024H316.592V0.689087Z" fill="#021E2F"/>
<path d="M294.275 2.03842C292.363 1.14242 290.066 0.689087 287.389 0.689087H269.811V31.3024H279.358V22.4064H287.389C290.066 22.4064 292.363 21.9584 294.275 21.0571C296.213 20.1611 297.691 18.8917 298.697 17.2597C299.704 15.6277 300.213 13.7238 300.213 11.5478C300.213 9.37176 299.709 7.44108 298.697 5.83575C297.685 4.20375 296.213 2.93975 294.275 2.03842ZM289.563 13.9957C288.91 14.5931 287.978 14.8917 286.779 14.8917H279.363V8.19841H286.779C287.978 8.19841 288.91 8.4864 289.563 9.05707C290.248 9.62774 290.586 10.4598 290.586 11.5478C290.586 12.6358 290.243 13.3984 289.563 13.9957Z" fill="#021E2F"/>
<path d="M238.832 0.689087L225.103 31.3024H235.266L237.595 25.7931H252.699L255.017 31.3024H265.223L251.452 0.689087H238.832ZM240.802 18.1984L245.16 7.87309L249.503 18.1984H240.802Z" fill="#021E2F"/>
<path d="M201.127 9.05599C202.385 8.43199 203.885 8.11732 205.635 8.11732C207.194 8.11732 208.543 8.34668 209.694 8.81068C210.84 9.24801 211.771 9.888 212.478 10.7307C213.217 11.5467 213.72 12.5387 213.993 13.712H223.583C223.256 10.9653 222.298 8.57066 220.713 6.528C219.155 4.45866 217.077 2.85335 214.486 1.71201C211.916 0.570678 208.966 0 205.635 0C202.032 0 198.873 0.666667 196.169 2C193.465 3.33333 191.361 5.19466 189.856 7.58932C188.352 9.98399 187.602 12.784 187.602 16C187.602 19.216 188.352 22.016 189.856 24.4107C191.361 26.8053 193.46 28.6667 196.169 30C198.873 31.3333 202.027 32 205.635 32C208.966 32 211.916 31.4293 214.486 30.288C217.083 29.1467 219.155 27.5413 220.713 25.472C222.298 23.4027 223.251 21.008 223.583 18.288H213.993C213.72 19.4827 213.217 20.5067 212.478 21.3493C211.766 22.192 210.84 22.832 209.694 23.2693C208.548 23.68 207.194 23.8827 205.635 23.8827C203.885 23.8827 202.385 23.568 201.127 22.944C199.869 22.2933 198.9 21.3813 198.22 20.208C197.534 19.04 197.197 17.6373 197.197 16.0053C197.197 14.3733 197.54 12.9707 198.22 11.8027C198.905 10.608 199.874 9.696 201.127 9.06667V9.05599Z" fill="#021E2F"/>
<path d="M134.825 21.2582H144.494C144.602 21.9675 144.944 22.5916 145.517 23.1356C146.117 23.6529 146.925 24.0582 147.932 24.3622C148.944 24.6342 150.133 24.7729 151.498 24.7729C153.383 24.7729 154.844 24.5542 155.883 24.1222C156.948 23.6849 157.479 23.0182 157.479 22.1222C157.479 21.4982 157.179 20.9916 156.579 20.6129C155.979 20.2022 154.791 19.9302 153.013 19.7969L147.605 19.3489C143.183 19.0236 139.97 18.0689 137.978 16.4902C136.013 14.8849 135.028 12.7356 135.028 10.0422C135.028 7.83955 135.671 5.99955 136.956 4.53288C138.241 3.03421 140.029 1.90889 142.326 1.14622C144.623 0.383557 147.327 0.00488281 150.438 0.00488281C153.549 0.00488281 156.108 0.426214 158.426 1.26888C160.777 2.11155 162.635 3.31154 164 4.8582C165.392 6.38354 166.158 8.16489 166.297 10.2076H156.627C156.52 9.61022 156.204 9.09287 155.685 8.65554C155.192 8.19153 154.48 7.83954 153.554 7.59421C152.622 7.34887 151.519 7.22621 150.234 7.22621C148.542 7.22621 147.188 7.42889 146.176 7.83955C145.191 8.25022 144.698 8.85822 144.698 9.67422C144.698 10.2716 144.987 10.7622 145.56 11.1462C146.16 11.5249 147.252 11.7862 148.837 11.9195L154.78 12.4102C157.73 12.6289 160.107 13.0929 161.912 13.7969C163.743 14.4795 165.066 15.4182 165.885 16.6129C166.704 17.7809 167.116 19.2635 167.116 21.0609C167.116 23.2369 166.458 25.1569 165.151 26.8156C163.839 28.4476 161.998 29.7275 159.62 30.6502C157.27 31.5462 154.512 31.9995 151.343 31.9995C148.173 31.9995 145.239 31.5515 142.781 30.6502C140.324 29.7542 138.396 28.5009 137.004 26.8955C135.612 25.2635 134.884 23.3862 134.83 21.2635H134.825V21.2582Z" fill="#021E2F"/>
<path d="M118.735 0.689087V20.4704L105.338 0.689087H93.0022V31.3024H102.222V10.8917L116.031 31.3024H127.998V0.689087H118.735Z" fill="#021E2F"/>
<path d="M76.9132 0.689087V20.4758L63.5115 0.689087H51.1807V31.3024H60.4007V10.8917L74.2093 31.3024H86.1707V0.689087H76.9132Z" fill="#021E2F"/>
<path d="M34.8022 0.689087H44.3489V31.3024H34.8022V0.689087Z" fill="#021E2F"/>
<path d="M0 0.689087H27.9706V8.32641H0V0.689087Z" fill="#D28E00"/>
<path d="M0 12.1757H18.6489V19.8131H0V12.1757Z" fill="#D28E00"/>
<path d="M0 23.6649H9.32176V31.3022H0V23.6649Z" fill="#D28E00"/>
</svg>
