<svg width="25" height="24" viewBox="0 0 25 24" fill="none" xmlns="http://www.w3.org/2000/svg">
<path d="M12.625 22.75C6.695 22.75 1.875 17.93 1.875 12C1.875 6.07 6.695 1.25 12.625 1.25C18.555 1.25 23.375 6.07 23.375 12C23.375 17.93 18.555 22.75 12.625 22.75ZM12.625 2.75C7.525 2.75 3.375 6.9 3.375 12C3.375 17.1 7.525 21.25 12.625 21.25C17.725 21.25 21.875 17.1 21.875 12C21.875 6.9 17.725 2.75 12.625 2.75Z" fill="#021E2F"/>
<path d="M16.625 12.75H8.625C8.215 12.75 7.875 12.41 7.875 12C7.875 11.59 8.215 11.25 8.625 11.25H16.625C17.035 11.25 17.375 11.59 17.375 12C17.375 12.41 17.035 12.75 16.625 12.75Z" fill="#021E2F"/>
<path d="M12.625 16.75C12.215 16.75 11.875 16.41 11.875 16V8C11.875 7.59 12.215 7.25 12.625 7.25C13.035 7.25 13.375 7.59 13.375 8V16C13.375 16.41 13.035 16.75 12.625 16.75Z" fill="#021E2F"/>
</svg>
