<svg width="24" height="25" viewBox="0 0 24 25" fill="none" xmlns="http://www.w3.org/2000/svg">
<path d="M16.7112 10.1992V7.78859C16.7112 6.63663 15.9036 5.5984 14.4371 4.8652C13.1436 4.21849 11.4414 3.8623 9.64397 3.8623C7.84636 3.8623 6.14409 4.21849 4.85067 4.8652C3.38426 5.5984 2.57666 6.63663 2.57666 7.78859V17.2114C2.57666 18.3634 3.38426 19.4016 4.85072 20.1349C6.14414 20.7816 7.84641 21.1377 9.64403 21.1377C11.0134 21.1377 12.3189 20.9334 13.4466 20.546C14.192 20.9242 15.0345 21.1377 15.9259 21.1377C18.9572 21.1377 21.4234 18.6715 21.4234 15.6403C21.4233 12.8756 19.3718 10.5814 16.7112 10.1992ZM4.14736 13.444C4.36155 13.5888 4.5959 13.7256 4.85072 13.853C6.14414 14.4997 7.84647 14.8558 9.64403 14.8558C9.92749 14.8558 10.2093 14.8465 10.4884 14.8288C10.4485 15.0975 10.4285 15.3687 10.4284 15.6403C10.4284 15.8968 10.4465 16.1492 10.4807 16.3964C10.2022 16.4162 9.92318 16.4261 9.64403 16.4261C6.49802 16.4261 4.14736 15.1824 4.14736 14.0705V13.444ZM10.9973 13.2068C10.5481 13.2593 10.0962 13.2854 9.64397 13.2851C6.49802 13.2851 4.14736 12.0415 4.14736 10.9296V10.3031C4.36155 10.4478 4.5959 10.5846 4.85072 10.712C6.14414 11.3587 7.84647 11.7149 9.64403 11.7149C10.6112 11.7149 11.55 11.6109 12.4132 11.4149C11.8217 11.9072 11.3395 12.5175 10.9973 13.2068ZM9.64397 5.43301C12.7899 5.43301 15.1405 6.67663 15.1405 7.78859C15.1405 8.90054 12.7899 10.1442 9.64397 10.1442C6.49802 10.1442 4.14736 8.90054 4.14736 7.78859C4.14736 6.67663 6.49802 5.43301 9.64397 5.43301ZM4.14736 17.2115V16.585C4.36155 16.7298 4.5959 16.8666 4.85072 16.9939C6.14414 17.6406 7.84641 17.9968 9.64403 17.9968C10.0775 17.9968 10.508 17.9755 10.9306 17.9343C11.169 18.451 11.4859 18.9277 11.87 19.3474C11.1702 19.4907 10.4124 19.5671 9.64397 19.5671C6.49802 19.5671 4.14736 18.3234 4.14736 17.2115ZM15.9259 19.5671C13.7607 19.5671 11.9991 17.8055 11.9991 15.6403C11.9991 13.4812 13.7508 11.7239 15.9077 11.714C15.9138 11.7142 15.9197 11.715 15.9259 11.715C15.9321 11.715 15.9379 11.7142 15.9441 11.714C18.1009 11.7239 19.8526 13.4812 19.8526 15.6403C19.8526 17.8055 18.0911 19.5671 15.9259 19.5671Z" fill="#F6AC12"/>
</svg>
