<svg width="25" height="24" viewBox="0 0 25 24" fill="none" xmlns="http://www.w3.org/2000/svg">
<path d="M15.74 22.27H15.61C11.17 22.27 9.03002 20.52 8.66002 16.6C8.62002 16.19 8.92002 15.82 9.34002 15.78C9.75002 15.74 10.12 16.05 10.16 16.46C10.45 19.6 11.93 20.77 15.62 20.77H15.75C19.82 20.77 21.26 19.33 21.26 15.26V8.73998C21.26 4.66998 19.82 3.22998 15.75 3.22998H15.62C11.91 3.22998 10.43 4.41998 10.16 7.61998C10.11 8.02998 9.77002 8.33998 9.34002 8.29998C8.92002 8.26998 8.62001 7.89998 8.65001 7.48998C8.99001 3.50998 11.14 1.72998 15.61 1.72998H15.74C20.65 1.72998 22.75 3.82998 22.75 8.73998V15.26C22.75 20.17 20.65 22.27 15.74 22.27Z" fill="#021E2F"/>
<path d="M15.38 12.75H2.5C2.09 12.75 1.75 12.41 1.75 12C1.75 11.59 2.09 11.25 2.5 11.25H15.38C15.79 11.25 16.13 11.59 16.13 12C16.13 12.41 15.8 12.75 15.38 12.75Z" fill="#021E2F"/>
<path d="M13.15 16.0998C12.96 16.0998 12.77 16.0298 12.62 15.8798C12.33 15.5898 12.33 15.1098 12.62 14.8198L15.44 11.9998L12.62 9.17984C12.33 8.88984 12.33 8.40984 12.62 8.11984C12.91 7.82984 13.39 7.82984 13.68 8.11984L17.03 11.4698C17.32 11.7598 17.32 12.2398 17.03 12.5298L13.68 15.8798C13.53 16.0298 13.34 16.0998 13.15 16.0998Z" fill="#021E2F"/>
</svg>
