<svg width="24" height="24" viewBox="0 0 24 24" fill="none" xmlns="http://www.w3.org/2000/svg">
<path d="M18.9999 10.75H16.9999C14.5799 10.75 13.2499 9.42 13.2499 7V5C13.2499 2.58 14.5799 1.25 16.9999 1.25H18.9999C21.4199 1.25 22.7499 2.58 22.7499 5V7C22.7499 9.42 21.4199 10.75 18.9999 10.75ZM16.9999 2.75C15.4199 2.75 14.7499 3.42 14.7499 5V7C14.7499 8.58 15.4199 9.25 16.9999 9.25H18.9999C20.5799 9.25 21.2499 8.58 21.2499 7V5C21.2499 3.42 20.5799 2.75 18.9999 2.75H16.9999Z" fill="#D4D4D4"/>
<path d="M6.99988 22.75H4.99988C2.57988 22.75 1.24988 21.42 1.24988 19V17C1.24988 14.58 2.57988 13.25 4.99988 13.25H6.99988C9.41988 13.25 10.7499 14.58 10.7499 17V19C10.7499 21.42 9.41988 22.75 6.99988 22.75ZM4.99988 14.75C3.41988 14.75 2.74988 15.42 2.74988 17V19C2.74988 20.58 3.41988 21.25 4.99988 21.25H6.99988C8.57988 21.25 9.24988 20.58 9.24988 19V17C9.24988 15.42 8.57988 14.75 6.99988 14.75H4.99988Z" fill="#D4D4D4"/>
<path d="M5.99988 10.75C3.37988 10.75 1.24988 8.62 1.24988 6C1.24988 3.38 3.37988 1.25 5.99988 1.25C8.61988 1.25 10.7499 3.38 10.7499 6C10.7499 8.62 8.61988 10.75 5.99988 10.75ZM5.99988 2.75C4.20988 2.75 2.74988 4.21 2.74988 6C2.74988 7.79 4.20988 9.25 5.99988 9.25C7.78988 9.25 9.24988 7.79 9.24988 6C9.24988 4.21 7.78988 2.75 5.99988 2.75Z" fill="#D4D4D4"/>
<path d="M17.9999 22.75C15.3799 22.75 13.2499 20.62 13.2499 18C13.2499 15.38 15.3799 13.25 17.9999 13.25C20.6199 13.25 22.7499 15.38 22.7499 18C22.7499 20.62 20.6199 22.75 17.9999 22.75ZM17.9999 14.75C16.2099 14.75 14.7499 16.21 14.7499 18C14.7499 19.79 16.2099 21.25 17.9999 21.25C19.7899 21.25 21.2499 19.79 21.2499 18C21.2499 16.21 19.7899 14.75 17.9999 14.75Z" fill="#D4D4D4"/>
</svg>
