<svg width="185" height="60" viewBox="0 0 185 60" fill="none" xmlns="http://www.w3.org/2000/svg">
<path d="M170.806 53.0614V36.2441H163.511V59.4691H185V53.0614H170.806Z" fill="#E2E1DD"/>
<path d="M139.901 36.2441L129.419 59.4691H137.175L138.956 55.2903H150.484L152.256 59.4691H160.042L149.533 36.2441H139.898H139.901ZM141.401 49.5275L144.728 41.6949L148.045 49.5275H141.401Z" fill="#E2E1DD"/>
<path d="M128.334 36.2441H103.658V42.6518H112.347V59.4691H119.633V42.6518H128.334V36.2441Z" fill="#E2E1DD"/>
<path d="M98.4473 36.2441H91.1611V59.4691H98.4473V36.2441Z" fill="#E2E1DD"/>
<path d="M81.4146 37.2671C79.9544 36.5861 78.2002 36.2441 76.1552 36.2441H62.7432V59.4691H70.0294V52.7194H76.1552C78.2002 52.7194 79.9544 52.3804 81.4146 51.6964C82.8931 51.0185 84.0171 50.0525 84.7896 48.8166C85.5531 47.5776 85.95 46.1347 85.95 44.4848C85.95 42.8349 85.5622 41.3709 84.7896 40.153C84.0171 38.914 82.8961 37.9541 81.4146 37.2731V37.2671ZM77.8155 46.3387C77.3156 46.7917 76.6097 47.0166 75.6947 47.0166H70.0294V41.9379H75.6947C76.6097 41.9379 77.3156 42.1569 77.8155 42.5889C78.3426 43.0208 78.5971 43.6538 78.5971 44.4788C78.5971 45.3037 78.3335 45.8827 77.8155 46.3357V46.3387Z" fill="#E2E1DD"/>
<path d="M39.0973 36.2441L28.627 59.4691H36.3827L38.1551 55.2903H49.6827L51.455 59.4691H59.2411L48.7314 36.2441H39.0973ZM40.606 49.5275L43.9325 41.6949L47.2409 49.5275H40.606Z" fill="#E2E1DD"/>
<path d="M10.3188 42.5919C11.2792 42.1179 12.4214 41.881 13.7605 41.881C14.9481 41.881 15.9842 42.0549 16.8628 42.4059C17.7384 42.7359 18.4473 43.2219 18.9835 43.8609C19.5501 44.4818 19.9348 45.2318 20.1439 46.1228H27.4664C27.2119 44.0379 26.4757 42.2229 25.27 40.672C24.0824 39.1031 22.4979 37.8851 20.5195 37.0182C18.5594 36.1512 16.3054 35.7192 13.7605 35.7192C11.0096 35.7192 8.60409 36.2262 6.5379 37.2372C4.47474 38.2481 2.86904 39.6611 1.72082 41.479C0.572598 43.2939 0 45.4208 0 47.8597C0 50.2986 0.572598 52.4255 1.72082 54.2404C2.86904 56.0583 4.47171 57.4683 6.5379 58.4822C8.60409 59.4932 11.0096 60.0001 13.7605 60.0001C16.3054 60.0001 18.5594 59.5682 20.5195 58.7012C22.4979 57.8342 24.0824 56.6163 25.27 55.0474C26.4757 53.4784 27.2119 51.6605 27.4664 49.5966H20.1439C19.9379 50.5026 19.5501 51.2795 18.9835 51.9185C18.4473 52.5575 17.7384 53.0434 16.8628 53.3734C15.9872 53.6854 14.9481 53.8384 13.7605 53.8384C12.4214 53.8384 11.2823 53.5984 10.3188 53.1275C9.35846 52.6325 8.62226 51.9425 8.1042 51.0515C7.57705 50.1636 7.31953 49.1016 7.31953 47.8627C7.31953 46.6237 7.58311 45.5588 8.1042 44.6738C8.62226 43.7679 9.36755 43.0749 10.3188 42.5979V42.5889V42.5919Z" fill="#E2E1DD"/>
<path d="M102.898 16.1273H110.278C110.363 16.6673 110.626 17.1382 111.059 17.5522C111.52 17.9452 112.135 18.2542 112.907 18.4822C113.68 18.6892 114.586 18.7942 115.631 18.7942C117.064 18.7942 118.185 18.6292 118.976 18.2992C119.788 17.9662 120.191 17.4622 120.191 16.7812C120.191 16.3073 119.963 15.9233 119.503 15.6353C119.042 15.3233 118.137 15.1163 116.779 15.0143L112.65 14.6753C109.275 14.4294 106.824 13.7034 105.306 12.5064C103.807 11.2885 103.052 9.65657 103.052 7.61366C103.052 5.94273 103.543 4.5448 104.522 3.43485C105.503 2.2979 106.869 1.44294 108.621 0.866965C110.375 0.287991 112.438 0 114.813 0C117.188 0 119.139 0.320989 120.912 0.959961C122.702 1.59893 124.117 2.50789 125.162 3.68383C126.229 4.84178 126.81 6.19172 126.916 7.74265H119.536C119.451 7.28967 119.215 6.89669 118.821 6.56371C118.446 6.21272 117.897 5.94574 117.191 5.75974C116.485 5.57375 115.637 5.48076 114.656 5.48076C113.365 5.48076 112.338 5.63375 111.565 5.94573C110.811 6.25772 110.435 6.7197 110.435 7.33768C110.435 7.79066 110.653 8.16264 111.096 8.45363C111.547 8.74161 112.386 8.9396 113.592 9.0416L118.124 9.41358C120.379 9.57857 122.196 9.93256 123.572 10.4665C124.965 10.9855 125.974 11.6965 126.607 12.6024C127.228 13.4904 127.54 14.6123 127.54 15.9773C127.54 17.6272 127.041 19.0851 126.041 20.3421C125.041 21.581 123.638 22.55 121.818 23.252C120.027 23.9329 117.925 24.2749 115.504 24.2749C113.083 24.2749 110.847 23.9359 108.972 23.252C107.097 22.574 105.627 21.62 104.561 20.4021C103.494 19.1631 102.94 17.7382 102.901 16.1303L102.892 16.1243L102.898 16.1273Z" fill="#E2E1DD"/>
<path d="M90.6244 0.521729V15.5301L80.3965 0.521729H70.9805V23.7467H78.0213V8.26138L88.5583 23.7467H97.6925V0.521729H90.6244Z" fill="#E2E1DD"/>
<path d="M58.7016 0.521729V15.533L48.4736 0.521729H39.0576V23.7467H46.0984V8.26138L56.6354 23.7467H65.7697V0.521729H58.7016Z" fill="#E2E1DD"/>
<path d="M26.5605 0.521729H33.8468V23.7467H26.5605V0.521729Z" fill="#E2E1DD"/>
<path d="M0 0.521729H21.3496V6.31746H0V0.521729Z" fill="#D28E00"/>
<path d="M0 9.23657H14.2331V15.0323H0V9.23657Z" fill="#D28E00"/>
<path d="M0 17.9543H7.11352V23.7501H0V17.9543Z" fill="#D28E00"/>
</svg>
