<svg width="200" height="200" viewBox="0 0 200 200" fill="none" xmlns="http://www.w3.org/2000/svg">
<path d="M99.9999 122.917H58.3333C54.9166 122.917 52.0833 120.084 52.0833 116.667C52.0833 113.25 54.9166 110.417 58.3333 110.417H99.9999C103.417 110.417 106.25 113.25 106.25 116.667C106.25 120.084 103.417 122.917 99.9999 122.917Z" fill="#EEF0F4"/>
<path d="M58.3333 55.9159C56.75 55.9159 55.1666 55.3326 53.9166 54.0826L22.6666 22.8326C20.25 20.4159 20.25 16.4159 22.6666 13.9993C25.0833 11.5826 29.0833 11.5826 31.5 13.9993L62.75 45.2493C65.1666 47.6659 65.1666 51.6659 62.75 54.0826C61.5 55.2493 59.9166 55.9159 58.3333 55.9159Z" fill="#EEF0F4"/>
<path d="M26.7502 56.2494C25.1669 56.2494 23.5836 55.6661 22.3336 54.4161C19.9169 51.9994 19.9169 47.9994 22.3336 45.5828L53.5836 14.3328C56.0002 11.9161 60.0002 11.9161 62.4169 14.3328C64.8336 16.7494 64.8336 20.7494 62.4169 23.1661L31.1669 54.4161C30.0002 55.6661 28.3336 56.2494 26.7502 56.2494Z" fill="#EEF0F4"/>
<path d="M125 89.583H58.3333C54.9166 89.583 52.0833 86.7497 52.0833 83.333C52.0833 79.9163 54.9166 77.083 58.3333 77.083H125C128.417 77.083 131.25 79.9163 131.25 83.333C131.25 86.7497 128.417 89.583 125 89.583Z" fill="#EEF0F4"/>
<path d="M175 139.584C171.583 139.584 168.75 136.75 168.75 133.334V66.5837C168.75 31.3337 156.75 24.167 133 22.917H83.3333C79.9166 22.917 77.0833 20.0837 77.0833 16.667C77.0833 13.2503 79.9166 10.417 83.3333 10.417H133.333C167.5 12.2503 181.25 28.5003 181.25 66.5837V133.334C181.25 136.75 178.417 139.584 175 139.584Z" fill="#EEF0F4"/>
<path d="M125 189.583H75C28.1667 189.583 18.75 168 18.75 133.167V75.0835C18.75 71.6668 21.5833 68.8335 25 68.8335C28.4167 68.8335 31.25 71.6668 31.25 75.0835V133.167C31.25 164.167 37.3333 177.083 75 177.083H125C128.417 177.083 131.25 179.917 131.25 183.333C131.25 186.75 128.417 189.583 125 189.583Z" fill="#EEF0F4"/>
<path d="M125 189.583C124.167 189.583 123.417 189.416 122.583 189.083C120.25 188.083 118.75 185.833 118.75 183.333V158.333C118.75 138.166 129.833 127.083 150 127.083H175C177.5 127.083 179.833 128.583 180.75 130.916C181.667 133.25 181.167 135.916 179.417 137.75L129.417 187.75C128.25 188.916 126.583 189.583 125 189.583ZM150 139.583C136.833 139.583 131.25 145.166 131.25 158.333V168.25L159.917 139.583H150Z" fill="#EEF0F4"/>
</svg>
