<svg width="43" height="42" viewBox="0 0 43 42" fill="none" xmlns="http://www.w3.org/2000/svg">
<rect x="0.666504" width="42" height="42" rx="21" fill="#021E2F"/>
<path d="M22.6665 18.75H16.6665C16.2565 18.75 15.9165 18.41 15.9165 18C15.9165 17.59 16.2565 17.25 16.6665 17.25H22.6665C23.0765 17.25 23.4165 17.59 23.4165 18C23.4165 18.41 23.0765 18.75 22.6665 18.75Z" fill="white"/>
<path d="M28.7064 23.7999C27.1964 23.7999 25.9164 22.6799 25.7964 21.2399C25.7164 20.4099 26.0164 19.5999 26.6164 19.0099C27.1164 18.4899 27.8264 18.2 28.5764 18.2H30.6664C31.6564 18.23 32.4164 19.0099 32.4164 19.9699V22.03C32.4164 22.99 31.6564 23.7699 30.6964 23.7999H28.7064ZM30.6364 19.7H28.5864C28.2364 19.7 27.9164 19.8299 27.6864 20.0699C27.3964 20.3499 27.2564 20.7299 27.2964 21.1099C27.3464 21.7699 27.9864 22.2999 28.7064 22.2999H30.6664C30.7964 22.2999 30.9164 22.18 30.9164 22.03V19.9699C30.9164 19.8199 30.7964 19.71 30.6364 19.7Z" fill="white"/>
<path d="M25.6665 30.25H16.6665C13.2265 30.25 10.9165 27.94 10.9165 24.5V17.5C10.9165 14.42 12.8165 12.19 15.7665 11.82C16.0365 11.78 16.3465 11.75 16.6665 11.75H25.6665C25.9065 11.75 26.2165 11.76 26.5365 11.81C29.4865 12.15 31.4165 14.39 31.4165 17.5V18.95C31.4165 19.36 31.0765 19.7 30.6665 19.7H28.5865C28.2365 19.7 27.9165 19.83 27.6865 20.07L27.6765 20.08C27.3965 20.35 27.2665 20.72 27.2965 21.1C27.3465 21.76 27.9865 22.29 28.7065 22.29H30.6665C31.0765 22.29 31.4165 22.63 31.4165 23.04V24.49C31.4165 27.94 29.1065 30.25 25.6665 30.25ZM16.6665 13.25C16.4265 13.25 16.1965 13.27 15.9665 13.3C13.7665 13.58 12.4165 15.18 12.4165 17.5V24.5C12.4165 27.08 14.0865 28.75 16.6665 28.75H25.6665C28.2465 28.75 29.9165 27.08 29.9165 24.5V23.8H28.7065C27.1965 23.8 25.9165 22.68 25.7965 21.24C25.7165 20.42 26.0165 19.6 26.6165 19.02C27.1365 18.49 27.8365 18.2 28.5865 18.2H29.9165V17.5C29.9165 15.16 28.5465 13.55 26.3265 13.29C26.0865 13.25 25.8765 13.25 25.6665 13.25H16.6665Z" fill="white"/>
</svg>
