<svg width="42" height="42" viewBox="0 0 42 42" fill="none" xmlns="http://www.w3.org/2000/svg">
<rect width="42" height="42" rx="21" fill="#021E2F"/>
<path d="M25 31.75H17C12.38 31.75 11.52 29.6 11.3 27.51L10.55 19.5C10.44 18.45 10.41 16.9 11.45 15.74C12.35 14.74 13.84 14.26 16 14.26H26C28.17 14.26 29.66 14.75 30.55 15.74C31.59 16.9 31.56 18.45 31.45 19.51L30.7 27.5C30.48 29.6 29.62 31.75 25 31.75ZM16 15.75C14.31 15.75 13.15 16.08 12.56 16.74C12.07 17.28 11.91 18.11 12.04 19.35L12.79 27.36C12.96 28.94 13.39 30.25 17 30.25H25C28.6 30.25 29.04 28.94 29.21 27.35L29.96 19.36C30.09 18.11 29.93 17.28 29.44 16.74C28.85 16.08 27.69 15.75 26 15.75H16Z" fill="white"/>
<path d="M25 15.75C24.59 15.75 24.25 15.41 24.25 15V14.2C24.25 12.42 24.25 11.75 21.8 11.75H20.2C17.75 11.75 17.75 12.42 17.75 14.2V15C17.75 15.41 17.41 15.75 17 15.75C16.59 15.75 16.25 15.41 16.25 15V14.2C16.25 12.44 16.25 10.25 20.2 10.25H21.8C25.75 10.25 25.75 12.44 25.75 14.2V15C25.75 15.41 25.41 15.75 25 15.75Z" fill="white"/>
<path d="M21 25.75C18.25 25.75 18.25 24.05 18.25 23.03V22C18.25 20.59 18.59 20.25 20 20.25H22C23.41 20.25 23.75 20.59 23.75 22V23C23.75 24.04 23.75 25.75 21 25.75ZM19.75 21.75C19.75 21.83 19.75 21.92 19.75 22V23.03C19.75 24.06 19.75 24.25 21 24.25C22.25 24.25 22.25 24.09 22.25 23.02V22C22.25 21.92 22.25 21.83 22.25 21.75C22.17 21.75 22.08 21.75 22 21.75H20C19.92 21.75 19.83 21.75 19.75 21.75Z" fill="white"/>
<path d="M23 23.77C22.63 23.77 22.3 23.49 22.26 23.11C22.21 22.7 22.5 22.32 22.91 22.27C25.55 21.94 28.08 20.94 30.21 19.39C30.54 19.14 31.01 19.22 31.26 19.56C31.5 19.89 31.43 20.36 31.09 20.61C28.75 22.31 25.99 23.4 23.09 23.77C23.06 23.77 23.03 23.77 23 23.77Z" fill="white"/>
<path d="M19 23.7799C18.97 23.7799 18.94 23.7799 18.91 23.7799C16.17 23.4699 13.5 22.4699 11.19 20.8899C10.85 20.6599 10.76 20.1899 10.99 19.8499C11.22 19.5099 11.69 19.4199 12.03 19.6499C14.14 21.0899 16.57 21.9999 19.07 22.2899C19.48 22.3399 19.78 22.7099 19.73 23.1199C19.7 23.4999 19.38 23.7799 19 23.7799Z" fill="white"/>
</svg>
