<svg width="43" height="42" viewBox="0 0 43 42" fill="none" xmlns="http://www.w3.org/2000/svg">
<rect x="0.333252" width="42" height="42" rx="21" fill="#021E2F"/>
<path d="M30.3333 31.75H12.3333C11.9233 31.75 11.5833 31.41 11.5833 31C11.5833 30.59 11.9233 30.25 12.3333 30.25H30.3333C30.7433 30.25 31.0833 30.59 31.0833 31C31.0833 31.41 30.7433 31.75 30.3333 31.75Z" fill="white"/>
<path d="M14.9332 28.7499H13.3333C12.3733 28.7499 11.5833 27.9599 11.5833 26.9999V18.3799C11.5833 17.4199 12.3733 16.6299 13.3333 16.6299H14.9332C15.8932 16.6299 16.6832 17.4199 16.6832 18.3799V26.9999C16.6832 27.9599 15.8932 28.7499 14.9332 28.7499ZM13.3333 18.1199C13.1933 18.1199 13.0833 18.2299 13.0833 18.3699V26.9999C13.0833 27.1399 13.1933 27.2499 13.3333 27.2499H14.9332C15.0732 27.2499 15.1832 27.1399 15.1832 26.9999V18.3799C15.1832 18.2399 15.0732 18.1299 14.9332 18.1299H13.3333V18.1199Z" fill="white"/>
<path d="M22.1334 28.7499H20.5334C19.5734 28.7499 18.7834 27.9599 18.7834 26.9999V15.1899C18.7834 14.2299 19.5734 13.4399 20.5334 13.4399H22.1334C23.0934 13.4399 23.8834 14.2299 23.8834 15.1899V26.9999C23.8834 27.9599 23.0934 28.7499 22.1334 28.7499ZM20.5334 14.9399C20.3934 14.9399 20.2834 15.0499 20.2834 15.1899V26.9999C20.2834 27.1399 20.3934 27.2499 20.5334 27.2499H22.1334C22.2734 27.2499 22.3834 27.1399 22.3834 26.9999V15.1899C22.3834 15.0499 22.2734 14.9399 22.1334 14.9399H20.5334Z" fill="white"/>
<path d="M29.3331 28.75H27.7332C26.7732 28.75 25.9832 27.96 25.9832 27V12C25.9832 11.04 26.7732 10.25 27.7332 10.25H29.3331C30.2931 10.25 31.0831 11.04 31.0831 12V27C31.0831 27.96 30.2931 28.75 29.3331 28.75ZM27.7332 11.75C27.5932 11.75 27.4832 11.86 27.4832 12V27C27.4832 27.14 27.5932 27.25 27.7332 27.25H29.3331C29.4731 27.25 29.5831 27.14 29.5831 27V12C29.5831 11.86 29.4731 11.75 29.3331 11.75H27.7332Z" fill="white"/>
</svg>
